<?xml version="1.0" encoding="utf-8"?>
<!-- Generator: Adobe Illustrator 22.0.1, SVG Export Plug-In . SVG Version: 6.00 Build 0)  -->
<svg version="1.1" id="Calque_1" xmlns="http://www.w3.org/2000/svg" xmlns:xlink="http://www.w3.org/1999/xlink" x="0px" y="0px"
	 viewBox="0 0 1021.5 392.2" style="enable-background:new 0 0 1021.5 392.2;" xml:space="preserve">
<style type="text/css">
	.st0{fill:#EED4AC;}
	.st1{fill:url(#SVGID_1_);}
	.st2{fill:none;stroke:url(#SVGID_2_);stroke-width:0.5;stroke-linecap:square;stroke-linejoin:bevel;stroke-miterlimit:10;}
	.st3{fill:none;stroke:url(#SVGID_3_);stroke-width:0.5;stroke-linecap:square;stroke-linejoin:bevel;stroke-miterlimit:10;}
	.st4{fill:none;stroke:url(#SVGID_4_);stroke-width:0.5;stroke-linecap:square;stroke-linejoin:bevel;stroke-miterlimit:10;}
	.st5{fill:none;stroke:url(#SVGID_5_);stroke-width:0.5;stroke-linecap:square;stroke-linejoin:bevel;stroke-miterlimit:10;}
	.st6{fill:none;stroke:url(#SVGID_6_);stroke-width:0.5;stroke-linecap:square;stroke-linejoin:bevel;stroke-miterlimit:10;}
	.st7{fill:none;stroke:url(#SVGID_7_);stroke-width:0.5;stroke-linecap:square;stroke-linejoin:bevel;stroke-miterlimit:10;}
	.st8{fill:none;stroke:url(#SVGID_8_);stroke-width:0.5;stroke-linecap:square;stroke-linejoin:bevel;stroke-miterlimit:10;}
	.st9{fill:none;stroke:url(#SVGID_9_);stroke-width:0.5;stroke-linecap:square;stroke-linejoin:bevel;stroke-miterlimit:10;}
	.st10{fill:url(#SVGID_10_);}
	.st11{fill:url(#SVGID_11_);}
	.st12{fill:#A66B50;stroke:#FFFFFF;stroke-width:0.5;stroke-linecap:square;stroke-linejoin:bevel;stroke-miterlimit:10;}
	.st13{fill:#A66B50;stroke:#FFFFFF;stroke-width:0.5;stroke-miterlimit:10;}
	.st14{fill:#A66B50;}
	.st15{fill:#726C68;}
	.st16{fill:#785A4C;}
</style>
<g>
	<ellipse cx="214.5" cy="197" rx="138.4" ry="137.9"/>
	<path class="st0" d="M355.8,196.1c0-77.1-62.5-139.6-139.6-139.6S28.5,135.9,76.6,196.1c42.1,52.6,62.5,139.6,139.6,139.6
		S355.8,273.2,355.8,196.1z"/>
	<g>
		<g>
			<linearGradient id="SVGID_1_" gradientUnits="userSpaceOnUse" x1="142.3463" y1="176.7142" x2="263.8298" y2="176.7142">
				<stop  offset="8.955040e-04" style="stop-color:#2F3A56;stop-opacity:0.6"/>
				<stop  offset="0.3715" style="stop-color:#7D7E81;stop-opacity:0.6"/>
				<stop  offset="0.9057" style="stop-color:#5A4034;stop-opacity:0.6"/>
			</linearGradient>
			<path class="st1" d="M212.8,108.1l31.2,8.6l19.6,10.8l-14.3,10.1l-20.7,16.9l4,34.7c-19.3,13.4-48.1,56.1-48.1,56.1l-30.8-16.7
				l-10.8-33.4l2.9-35.2l14.1-26.8l22-17.1L212.8,108.1 M212.6,107.7l-31,7.9l-0.2,0.1l-22,17.1l-0.1,0.2l-14.1,26.8l-0.1,0.2
				l-2.9,35.2l0,0.2l10.8,33.4l0.2,0.3l30.8,16.7l0.7-0.2c0.3-0.4,29-42.7,48-55.9l0.2-0.5l-3.9-34.5l20.5-16.8l14.3-10.1l0-0.8
				l-19.6-10.8l-0.1,0l-31.2-8.6L212.6,107.7L212.6,107.7z"/>
		</g>
		<linearGradient id="SVGID_2_" gradientUnits="userSpaceOnUse" x1="153.2666" y1="168.4707" x2="249.5961" y2="168.4707">
			<stop  offset="8.955040e-04" style="stop-color:#2F3A56;stop-opacity:0.6"/>
			<stop  offset="0.3715" style="stop-color:#7D7E81;stop-opacity:0.6"/>
			<stop  offset="0.9057" style="stop-color:#5A4034;stop-opacity:0.6"/>
		</linearGradient>
		<polyline class="st2" points="249.3,137.6 228.6,124.4 212.8,108.1 201.3,131 186.8,163.5 176.9,190.4 168.8,217 153.6,228.6 		
			"/>
		<linearGradient id="SVGID_3_" gradientUnits="userSpaceOnUse" x1="168.4471" y1="180.655" x2="228.7485" y2="180.655">
			<stop  offset="8.955040e-04" style="stop-color:#2F3A56;stop-opacity:0.6"/>
			<stop  offset="0.3715" style="stop-color:#7D7E81;stop-opacity:0.6"/>
			<stop  offset="0.9057" style="stop-color:#5A4034;stop-opacity:0.6"/>
		</linearGradient>
		<polyline class="st3" points="207.6,214.4 196.2,214.6 176.9,190.4 186.8,163.5 228.6,154.5 201.3,131 181.8,116.1 174.6,143.7 
			186.8,163.5 196.2,214.6 184.4,245.3 168.8,217 		"/>
		<linearGradient id="SVGID_4_" gradientUnits="userSpaceOnUse" x1="145.3577" y1="138.3782" x2="244.3099" y2="138.3782">
			<stop  offset="8.955040e-04" style="stop-color:#2F3A56;stop-opacity:0.6"/>
			<stop  offset="0.3715" style="stop-color:#7D7E81;stop-opacity:0.6"/>
			<stop  offset="0.9057" style="stop-color:#5A4034;stop-opacity:0.6"/>
		</linearGradient>
		<polyline class="st4" points="145.7,160 174.6,141.7 201.3,131 228.6,124.4 244,116.7 		"/>
		<linearGradient id="SVGID_5_" gradientUnits="userSpaceOnUse" x1="176.6169" y1="173.7823" x2="227.6051" y2="173.7823">
			<stop  offset="8.955040e-04" style="stop-color:#2F3A56;stop-opacity:0.6"/>
			<stop  offset="0.3715" style="stop-color:#7D7E81;stop-opacity:0.6"/>
			<stop  offset="0.9057" style="stop-color:#5A4034;stop-opacity:0.6"/>
		</linearGradient>
		<polyline class="st5" points="176.9,190.4 205.6,183 227.3,157.2 		"/>
		<linearGradient id="SVGID_6_" gradientUnits="userSpaceOnUse" x1="228.3352" y1="139.4726" x2="228.8352" y2="139.4726">
			<stop  offset="8.955040e-04" style="stop-color:#2F3A56;stop-opacity:0.6"/>
			<stop  offset="0.3715" style="stop-color:#7D7E81;stop-opacity:0.6"/>
			<stop  offset="0.9057" style="stop-color:#5A4034;stop-opacity:0.6"/>
		</linearGradient>
		<line class="st6" x1="228.6" y1="124.4" x2="228.6" y2="154.5"/>
		<linearGradient id="SVGID_7_" gradientUnits="userSpaceOnUse" x1="159.4245" y1="138.4321" x2="174.9124" y2="138.4321">
			<stop  offset="8.955040e-04" style="stop-color:#2F3A56;stop-opacity:0.6"/>
			<stop  offset="0.3715" style="stop-color:#7D7E81;stop-opacity:0.6"/>
			<stop  offset="0.9057" style="stop-color:#5A4034;stop-opacity:0.6"/>
		</linearGradient>
		<line class="st7" x1="159.8" y1="133.2" x2="174.6" y2="143.7"/>
		<linearGradient id="SVGID_8_" gradientUnits="userSpaceOnUse" x1="141.7341" y1="189.0457" x2="205.8107" y2="189.0457">
			<stop  offset="8.955040e-04" style="stop-color:#2F3A56;stop-opacity:0.6"/>
			<stop  offset="0.3715" style="stop-color:#7D7E81;stop-opacity:0.6"/>
			<stop  offset="0.9057" style="stop-color:#5A4034;stop-opacity:0.6"/>
		</linearGradient>
		<polyline class="st8" points="167.1,216.6 196.2,214.6 205.6,183 188.4,163.3 145.7,160 177.9,191.1 141.9,195.3 168.9,218 		"/>
		<linearGradient id="SVGID_9_" gradientUnits="userSpaceOnUse" x1="205.3227" y1="186.1517" x2="232.8424" y2="186.1517">
			<stop  offset="8.955040e-04" style="stop-color:#2F3A56;stop-opacity:0.6"/>
			<stop  offset="0.3715" style="stop-color:#7D7E81;stop-opacity:0.6"/>
			<stop  offset="0.9057" style="stop-color:#5A4034;stop-opacity:0.6"/>
		</linearGradient>
		<line class="st9" x1="232.5" y1="189.3" x2="205.6" y2="183"/>
	</g>
	<linearGradient id="SVGID_10_" gradientUnits="userSpaceOnUse" x1="361.5253" y1="314.4179" x2="138.7788" y2="123.8757">
		<stop  offset="8.955040e-04" style="stop-color:#2F3A56;stop-opacity:0.6"/>
		<stop  offset="0.3715" style="stop-color:#7D7E81;stop-opacity:0.6"/>
		<stop  offset="0.9057" style="stop-color:#5A4034;stop-opacity:0.6"/>
	</linearGradient>
	<path class="st10" d="M267,137.6c0,0,16.8,14.9,16.1,28.4c-0.7,13.5-4.2,28.4,6.8,41.3c5.1,5.9,8.4,9.3,4,11.4s-6.3,3.5-7.7,3.7
		c-1.4,0.2-4,2.6-2.3,6.3c1.6,3.7,2.6,5.6-0.5,7c-3,1.4-2.6,3.7-1.6,4.7c0.9,0.9,2.3,5.1-1.3,6.5c-3.7,1.4-2,6.9-2,6.9
		s2,11.1-8.1,11c-4.1-0.1-12.9-1.9-19.2-3c-6.4-1.1-18.8,0.7-18.9,9.6c-0.1,8.9,0.8,13,0.8,13s-30.1-8.3-34.2-13.5
		c0,0-3.4-28.8,18.1-47.8c12.5-11,23.9-21.5,26.1-48.5C249,154.6,258,143.2,267,137.6z"/>
	<linearGradient id="SVGID_11_" gradientUnits="userSpaceOnUse" x1="328.8983" y1="352.5592" x2="106.1519" y2="162.0171">
		<stop  offset="8.955040e-04" style="stop-color:#2F3A56;stop-opacity:0.6"/>
		<stop  offset="0.3715" style="stop-color:#7D7E81;stop-opacity:0.6"/>
		<stop  offset="0.9057" style="stop-color:#5A4034;stop-opacity:0.6"/>
	</linearGradient>
	<path class="st11" d="M124.9,217c0,0,47.3,61.2,108.7,70.6c7.6,1.2,38.1,8.5,68.5-12.2c0,0-32.3,40.2-101.3,14.1
		C194.5,287.1,137.4,254.9,124.9,217z"/>
	<circle class="st14" cx="235.4" cy="102.1" r="2.5"/>
	<circle class="st14" cx="195.5" cy="94.1" r="2.5"/>
	<circle class="st14" cx="174.4" cy="102.6" r="2.9"/>
	<ellipse transform="matrix(0.9767 -0.2145 0.2145 0.9767 -21.0088 35.1368)" class="st14" cx="151.4" cy="114.4" rx="2.7" ry="2"/>
	<circle class="st14" cx="134.6" cy="134.2" r="4.1"/>
	<circle class="st14" cx="127.1" cy="160.6" r="2.5"/>
	
		<ellipse transform="matrix(0.4439 -0.8961 0.8961 0.4439 -101.4779 217.911)" class="st14" cx="124.8" cy="190.7" rx="4.2" ry="2.9"/>
	<circle class="st14" cx="188" cy="162.5" r="3.5"/>
	<circle class="st14" cx="227.1" cy="155.6" r="3.5"/>
	<circle class="st14" cx="249.3" cy="137.6" r="2.7"/>
	<circle class="st14" cx="245.1" cy="116.9" r="4.4"/>
	<circle class="st14" cx="261.9" cy="127.3" r="4.4"/>
	<circle class="st14" cx="201.8" cy="131.5" r="4.4"/>
	<circle class="st14" cx="228.6" cy="124.4" r="2.8"/>
	<circle class="st14" cx="174.3" cy="142.4" r="2.8"/>
	<circle class="st14" cx="212.8" cy="108.1" r="4"/>
	<circle class="st14" cx="181.8" cy="116.1" r="3.1"/>
	<circle class="st14" cx="158.8" cy="133.1" r="3.2"/>
	<circle class="st14" cx="146.6" cy="161.2" r="4.2"/>
	<circle class="st14" cx="142.8" cy="195.2" r="4.1"/>
	<circle class="st14" cx="168.9" cy="218" r="3.7"/>
	<circle class="st14" cx="153.6" cy="228.6" r="4.3"/>
	<circle class="st14" cx="183.8" cy="245" r="4.1"/>
	<circle class="st14" cx="205.6" cy="183" r="4.6"/>
	<circle class="st14" cx="176.9" cy="190.4" r="5.2"/>
	<circle class="st14" cx="142.8" cy="195.2" r="3.5"/>
	<circle class="st14" cx="196.2" cy="214.6" r="3.8"/>
	<circle class="st14" cx="231.2" cy="188.5" r="3.8"/>
	<g>
		<g>
			<path class="st15" d="M416.4,194.8v-101h13.3l62.4,85v-85h11.4v101h-13.3l-62.4-85.3v85.3H416.4z"/>
		</g>
		<g>
			<path class="st16" d="M609.6,194.8v-101H621v101H609.6z"/>
		</g>
		<g>
			<path class="st15" d="M727.2,194.8v-101h11.4v101H727.2z"/>
		</g>
		<g>
			<path class="st15" d="M832.8,194.8l42.9-101H890l42.9,101h-12.7l-12.4-29.3h-50.1l-12.4,29.3H832.8z M862.2,154.9h41.2
				l-20.6-49.3L862.2,154.9z"/>
		</g>
	</g>
	<g>
		<g>
			<path class="st15" d="M416.4,262h5.3V285h-5.3V262z"/>
		</g>
		<g>
			<path class="st15" d="M453.6,262V285h-4.4l-11.5-14v14h-5.3V262h4.4l11.5,14v-14H453.6z"/>
		</g>
		<g>
			<path class="st15" d="M485.6,262V285h-4.4l-11.5-14v14h-5.3V262h4.4l11.5,14v-14H485.6z"/>
		</g>
		<g>
			<path class="st15" d="M514.2,280.8v4.3h-17.9V262h17.5v4.3h-12.1v5h10.7v4.2h-10.7v5.3H514.2z"/>
		</g>
		<g>
			<path class="st15" d="M538.5,285l-4.5-6.4h-0.3h-4.7v6.4h-5.3V262h10c6.2,0,10,3.2,10,8.4c0,3.5-1.7,6-4.7,7.3l5.2,7.4H538.5z
				 M533.4,266.3h-4.4v8.1h4.4c3.3,0,4.9-1.5,4.9-4C538.4,267.8,536.7,266.3,533.4,266.3z"/>
		</g>
		<g>
			<path class="st15" d="M583.1,280.1h-10.7l-2,5h-5.5l10.3-23.1h5.3l10.3,23.1h-5.6L583.1,280.1z M581.4,276l-3.7-8.8l-3.7,8.8
				H581.4z"/>
		</g>
		<g>
			<path class="st15" d="M598.2,274.9V262h5.3v12.7c0,4.4,1.9,6.2,5.1,6.2c3.3,0,5.1-1.8,5.1-6.2V262h5.3v12.9
				c0,6.8-3.9,10.6-10.5,10.6C602.1,285.4,598.2,281.7,598.2,274.9z"/>
		</g>
		<g>
			<path class="st15" d="M634.5,266.3h-7.4V262h20.1v4.4h-7.4V285h-5.3V266.3z"/>
		</g>
		<g>
			<path class="st15" d="M676.6,262V285h-5.3v-9.5h-10.5v9.5h-5.3V262h5.3v9.1h10.5V262H676.6z"/>
		</g>
		<g>
			<path class="st15" d="M685.8,273.5c0-6.9,5.3-11.9,12.6-11.9c7.3,0,12.6,5,12.6,11.9c0,6.9-5.4,11.9-12.6,11.9
				C691.2,285.4,685.8,280.4,685.8,273.5z M705.7,273.5c0-4.4-3.1-7.4-7.2-7.4c-4.1,0-7.2,3-7.2,7.4c0,4.4,3.1,7.4,7.2,7.4
				C702.6,280.9,705.7,277.9,705.7,273.5z"/>
		</g>
		<g>
			<path class="st15" d="M735.1,285l-4.5-6.4h-0.3h-4.7v6.4h-5.3V262h10c6.2,0,10,3.2,10,8.4c0,3.5-1.8,6-4.7,7.3l5.2,7.4H735.1z
				 M730.1,266.3h-4.4v8.1h4.4c3.3,0,4.9-1.5,4.9-4C735,267.8,733.4,266.3,730.1,266.3z"/>
		</g>
		<g>
			<path class="st15" d="M749.9,262h5.3V285h-5.3V262z"/>
		</g>
		<g>
			<path class="st15" d="M770.8,266.3h-7.4V262h20.1v4.4h-7.4V285h-5.3V266.3z"/>
		</g>
		<g>
			<path class="st15" d="M802.8,276.9v8.2h-5.3v-8.2l-8.9-14.8h5.7l6.2,10.3l6.2-10.3h5.2L802.8,276.9z"/>
		</g>
	</g>
	<g>
		<g>
			<path class="st15" d="M437.5,225V248h-4.4l-11.5-14v14h-5.3V225h4.4l11.5,14v-14H437.5z"/>
		</g>
		<g>
			<path class="st15" d="M466.2,243.8v4.3h-17.9V225h17.5v4.3h-12.1v5h10.7v4.2h-10.7v5.3H466.2z"/>
		</g>
		<g>
			<path class="st15" d="M475.5,237.9V225h5.3v12.7c0,4.4,1.9,6.2,5.1,6.2c3.3,0,5.1-1.8,5.1-6.2V225h5.3v12.9
				c0,6.8-3.9,10.6-10.5,10.6C479.4,248.4,475.5,244.7,475.5,237.9z"/>
		</g>
		<g>
			<path class="st15" d="M521.7,248l-4.5-6.4H517h-4.7v6.4H507V225h10c6.2,0,10,3.2,10,8.4c0,3.5-1.7,6-4.7,7.3l5.2,7.4H521.7z
				 M516.7,229.3h-4.4v8.1h4.4c3.3,0,4.9-1.5,4.9-4C521.6,230.8,519.9,229.3,516.7,229.3z"/>
		</g>
		<g>
			<path class="st15" d="M551.7,243.1H541l-2,5h-5.5l10.3-23.1h5.3l10.3,23.1h-5.6L551.7,243.1z M550,239l-3.7-8.8l-3.7,8.8H550z"/>
		</g>
		<g>
			<path class="st15" d="M567,225h5.3v18.7H584v4.4H567V225z"/>
		</g>
		<g>
			<path class="st15" d="M606.9,225h5.3V248h-5.3V225z"/>
		</g>
		<g>
			<path class="st15" d="M644.2,225V248h-4.4l-11.5-14v14H623V225h4.4l11.5,14v-14H644.2z"/>
		</g>
		<g>
			<path class="st15" d="M659.7,229.3h-7.4V225h20.1v4.4H665V248h-5.3V229.3z"/>
		</g>
		<g>
			<path class="st15" d="M698.5,243.8v4.3h-17.9V225H698v4.3h-12.1v5h10.7v4.2h-10.7v5.3H698.5z"/>
		</g>
		<g>
			<path class="st15" d="M708,225h5.3v18.7h11.6v4.4H708V225z"/>
		</g>
		<g>
			<path class="st15" d="M733.2,225h5.3v18.7h11.6v4.4h-16.9V225z"/>
		</g>
		<g>
			<path class="st15" d="M758.4,225h5.3V248h-5.3V225z"/>
		</g>
		<g>
			<path class="st15" d="M790.1,236.1h4.9v9.4c-2.5,1.9-6,2.9-9.3,2.9c-7.3,0-12.6-5-12.6-11.9s5.3-11.9,12.7-11.9
				c4.1,0,7.4,1.4,9.7,4l-3.4,3.2c-1.7-1.8-3.6-2.6-6-2.6c-4.5,0-7.6,3-7.6,7.4c0,4.3,3.1,7.4,7.5,7.4c1.5,0,2.8-0.3,4.2-1V236.1z"
				/>
		</g>
		<g>
			<path class="st15" d="M823.1,243.8v4.3h-17.9V225h17.5v4.3h-12.1v5h10.7v4.2h-10.7v5.3H823.1z"/>
		</g>
		<g>
			<path class="st15" d="M853.8,225V248h-4.4l-11.5-14v14h-5.3V225h4.4l11.5,14v-14H853.8z"/>
		</g>
		<g>
			<path class="st15" d="M863.1,236.5c0-7,5.3-11.9,12.5-11.9c4,0,7.3,1.5,9.5,4.1l-3.4,3.2c-1.6-1.8-3.5-2.7-5.8-2.7
				c-4.3,0-7.4,3-7.4,7.4c0,4.4,3.1,7.4,7.4,7.4c2.3,0,4.3-0.9,5.8-2.7l3.4,3.2c-2.2,2.7-5.5,4.1-9.5,4.1
				C868.5,248.4,863.1,243.5,863.1,236.5z"/>
		</g>
		<g>
			<path class="st15" d="M911.9,243.8v4.3H894V225h17.5v4.3h-12.1v5h10.7v4.2h-10.7v5.3H911.9z"/>
		</g>
		<g>
			<path class="st15" d="M953.8,248.4l-2.8-2.6c-2.1,1.6-4.7,2.6-7.7,2.6c-5.1,0-8.8-2.6-8.8-6.3c0-2.9,1.6-4.9,5.1-6.9
				c-1.7-1.8-2.4-3.2-2.4-4.9c0-3.4,2.8-5.7,7.2-5.7c4,0,6.6,2,6.6,5.3c0,2.4-1.4,4.1-4.5,5.8l4.2,3.9c0.5-1,0.9-2.2,1.2-3.6
				l4.1,1.3c-0.4,2-1.1,3.8-2.1,5.2l2.7,2.5L953.8,248.4z M948,243.1l-5.6-5.2c-2.1,1.2-2.9,2.3-2.9,3.7c0,1.7,1.6,2.9,4.1,2.9
				C945.3,244.4,946.7,244,948,243.1z M941.9,230.3c0,0.9,0.4,1.6,1.8,2.9c2.3-1.2,3-2.1,3-3.1c0-1.1-0.8-1.9-2.3-1.9
				C942.8,228.2,941.9,229,941.9,230.3z"/>
		</g>
	</g>
</g>
</svg>
